<svg xmlns="http://www.w3.org/2000/svg" viewBox="0 0 240 240" width="320" height="320" role="img" aria-label="AdSights animated SVG — Sparkle"><title>AdSights animated SVG — Sparkle</title><defs><linearGradient id="_R_53aav5ubsnmbulb_-sparkle-1u0kp24-g" x1="0" y1="0" x2="1" y2="1"><stop offset="0%" stop-color="#ffffff"/><stop offset="50%" stop-color="#ff9aff"/><stop offset="100%" stop-color="#f705ff"/></linearGradient><radialGradient id="_R_53aav5ubsnmbulb_-sparkle-1u0kp24-glow" cx="50%" cy="50%" r="50%"><stop offset="0%" stop-color="#f705ff" stop-opacity="0.55"/><stop offset="55%" stop-color="#f705ff" stop-opacity="0.16"/><stop offset="100%" stop-color="#f705ff" stop-opacity="0"/></radialGradient></defs><rect width="240" height="240" rx="28" fill="#0F172A"/><style>@keyframes _R_53aav5ubsnmbulb_-sparkle-1u0kp24-tw{0%,100%{transform:scale(0.4);opacity:0.25}50%{transform:scale(1);opacity:1}}._R_53aav5ubsnmbulb_-sparkle-1u0kp24-tw{animation:_R_53aav5ubsnmbulb_-sparkle-1u0kp24-tw 2.5s ease-in-out infinite}</style><circle cx="120" cy="110" r="90" fill="url(#_R_53aav5ubsnmbulb_-sparkle-1u0kp24-glow)" opacity="0.6"/><path d="M 120 50 C 125.52 90.48 125.52 90.48 166 96 C 125.52 101.52 125.52 101.52 120 142 C 114.48 101.52 114.48 101.52 74 96 C 114.48 90.48 114.48 90.48 120 50 Z" fill="url(#_R_53aav5ubsnmbulb_-sparkle-1u0kp24-g)" class="_R_53aav5ubsnmbulb_-sparkle-1u0kp24-tw _R_53aav5ubsnmbulb_-sparkle-1u0kp24-a" style="transform-box:fill-box;transform-origin:center;animation-delay:0s"/><path d="M 72 124 C 75.12 146.88 75.12 146.88 98 150 C 75.12 153.12 75.12 153.12 72 176 C 68.88 153.12 68.88 153.12 46 150 C 68.88 146.88 68.88 146.88 72 124 Z" fill="url(#_R_53aav5ubsnmbulb_-sparkle-1u0kp24-g)" class="_R_53aav5ubsnmbulb_-sparkle-1u0kp24-tw _R_53aav5ubsnmbulb_-sparkle-1u0kp24-a" style="transform-box:fill-box;transform-origin:center;animation-delay:-0.83s"/><path d="M 170 126 C 173.84 154.16 173.84 154.16 202 158 C 173.84 161.84 173.84 161.84 170 190 C 166.16 161.84 166.16 161.84 138 158 C 166.16 154.16 166.16 154.16 170 126 Z" fill="url(#_R_53aav5ubsnmbulb_-sparkle-1u0kp24-g)" class="_R_53aav5ubsnmbulb_-sparkle-1u0kp24-tw _R_53aav5ubsnmbulb_-sparkle-1u0kp24-a" style="transform-box:fill-box;transform-origin:center;animation-delay:-1.67s"/><style>@media (prefers-reduced-motion: reduce){._R_53aav5ubsnmbulb_-sparkle-1u0kp24-a{animation:none!important}}</style></svg>